<svg xmlns="http://www.w3.org/2000/svg" width="20" height="20" viewBox="0 0 20 20">
  <defs>
    <style>
      .cls-1 {
        fill: #e6e4e4;
        fill-rule: evenodd;
      }
    </style>
  </defs>
  <path id="cart_icon" data-name="cart icon" class="cls-1" d="M1297,3102a2,2,0,1,0,2,2,2,2,0,0,0-2-2h0Zm-6-16v2h2l3.6,7.59-1.35,2.45a1.933,1.933,0,0,0-.25.96,2.006,2.006,0,0,0,2,2h12v-2h-11.58a0.248,0.248,0,0,1-.25-0.25l0.03-.12,0.9-1.63h7.45a1.991,1.991,0,0,0,1.75-1.03l3.58-6.49a0.977,0.977,0,0,0,.12-0.48,1,1,0,0,0-1-1h-14.79l-0.94-2H1291Zm16,16a2,2,0,1,0,2,2,2,2,0,0,0-2-2h0Z" transform="translate(-1291 -3086)"/>
</svg>
