<svg xmlns="http://www.w3.org/2000/svg" width="20.16" height="20" viewBox="0 0 20.16 20">
  <defs>
    <style>
      .cls-1 {
        fill: gray;
        fill-rule: evenodd;
      }
    </style>
  </defs>
  <path id="icon" class="cls-1" d="M1606,1769a2,2,0,1,0,2,2A2,2,0,0,0,1606,1769Zm-11.99,2a2,2,0,1,0,1.99-2A2,2,0,0,0,1594.01,1771Zm13.3-14h-12.15l2.24,4.73,0.13,0.27h7.02Zm-13.1-2H1610l0.16,0.96-3.86,7.01a1.991,1.991,0,0,1-1.75,1.03h-7.45l-0.9,1.63-0.03.12a0.254,0.254,0,0,0,.25.25H1608v2h-12a2.006,2.006,0,0,1-2-2,1.933,1.933,0,0,1,.25-0.96l1.35-2.45L1592,1755h-2v-2h3.27Z" transform="translate(-1590 -1753)"/>
</svg>
