<svg xmlns="http://www.w3.org/2000/svg" width="20" height="18.34" viewBox="0 0 20 18.34">
  <defs>
    <style>
      .cls-1 {
        fill: gray;
        fill-rule: evenodd;
      }
    </style>
  </defs>
  <path id="wishlist_icon" data-name="wishlist icon" class="cls-1" d="M1721.1,1769.55l-0.1.1-0.1-.1c-4.76-4.31-7.9-7.16-7.9-10.05a3.418,3.418,0,0,1,3.5-3.5,3.909,3.909,0,0,1,3.57,2.36h1.87a3.885,3.885,0,0,1,3.56-2.36,3.418,3.418,0,0,1,3.5,3.5C1729,1762.39,1725.86,1765.24,1721.1,1769.55Zm4.4-15.55a5.889,5.889,0,0,1-9,0,5.447,5.447,0,0,0-5.5,5.5c0,3.78,3.4,6.86,8.55,11.54l1.45,1.31,1.45-1.32c5.15-4.67,8.55-7.75,8.55-11.53A5.447,5.447,0,0,0,1725.5,1754Z" transform="translate(-1711 -1754)"/>
</svg>
